<svg width="400" height="400" viewBox="0 0 400 400" fill="none" xmlns="http://www.w3.org/2000/svg">
  <rect width="400" height="400" fill="#F3F4F6"/>
  <path d="M200 120C177.909 120 160 137.909 160 160C160 182.091 177.909 200 200 200C222.091 200 240 182.091 240 160C240 137.909 222.091 120 200 120Z" fill="#D1D5DB"/>
  <path d="M280 280C280 246.863 253.137 220 220 220H180C146.863 220 120 246.863 120 280V300H280V280Z" fill="#D1D5DB"/>
  <rect x="140" y="140" width="120" height="120" rx="8" fill="#E5E7EB"/>
  <path d="M180 170L200 190L220 170" stroke="#9CA3AF" stroke-width="4" stroke-linecap="round" stroke-linejoin="round"/>
  <circle cx="200" cy="200" r="80" stroke="#9CA3AF" stroke-width="2" stroke-dasharray="4 4"/>
  <text x="200" y="340" font-family="Arial, sans-serif" font-size="16" fill="#6B7280" text-anchor="middle">No Image Available</text>
</svg>
